<svg width="725" height="622" viewBox="0 0 725 622" fill="none" xmlns="http://www.w3.org/2000/svg">
<path d="M116.007 57.6634C218.75 -48.975 330.477 100.703 385.862 222.471L322.981 457.148C255.256 414.196 144.572 332.322 153.292 325.989C162.012 319.655 135.548 306.501 132.519 303.522C94.2288 273.032 102.949 229.77 104.989 213.878C107.649 198.451 114.698 177.766 101.196 137.862C86.3118 93.873 110.717 67.324 116.007 57.6634Z" fill="white"/>
<path d="M701.981 214.523C666.322 70.7994 494.686 144.707 385.836 222.468L322.993 457C403.122 453.665 539.4 433.868 535.966 426.03C535.148 416.644 560.085 419.993 564.751 419.186C613.157 411.927 627.236 370.1 633.415 355.317C638.825 340.627 643.063 319.188 674.708 291.382C709.593 260.729 701.731 225.534 701.981 214.523Z" fill="white"/>
<ellipse cx="428.656" cy="456.442" rx="110.281" ry="115.107" transform="rotate(15 428.656 456.442)" fill="white"/>
<ellipse cx="232.725" cy="403.939" rx="110.281" ry="115.107" transform="rotate(15 232.725 403.939)" fill="white"/>
<path d="M685.534 235.412C674.817 80.5713 477.869 173.561 380.735 239.411L327.192 439.236C399.288 437.24 526.007 426.532 521.951 417.996C517.895 409.46 540.721 410.161 544.411 409.287C587.906 403.56 606.333 378.492 610.11 366.675C615.201 354.171 625.07 320.399 651.805 295.282C678.54 270.165 685.431 244.903 685.534 235.412Z" fill="white"/>
<path d="M118.781 83.5478C205.483 -45.1897 329.549 133.815 380.745 239.41L327.202 439.235C265.763 401.459 161.376 328.826 169.156 323.461C176.936 318.097 156.818 307.291 154.059 304.69C119.255 277.982 116.806 248.616 118.469 234.937C120.694 221.665 128.65 187.381 118.056 152.261C107.462 117.141 114.125 91.8189 118.781 83.5478Z" fill="white"/>
<ellipse cx="429.518" cy="451.122" rx="100.149" ry="106.735" transform="rotate(15 429.518 451.122)" fill="white"/>
<ellipse cx="236.016" cy="399.281" rx="100.149" ry="106.735" transform="rotate(15 236.016 399.281)" fill="white"/>
<path d="M383.177 232.854C388.796 280.776 390.938 372.641 327.483 444.116C315.755 397.623 320.563 309.204 383.177 232.854Z" fill="white"/>
</svg>
