<svg width="300" height="300" viewBox="0 0 300 300" fill="none" xmlns="http://www.w3.org/2000/svg">
<g clip-path="url(#clip0_189_42)">
<path d="M18.0641 39.373C66.8312 -11.2444 119.861 59.8016 146.149 117.6L116.302 228.992C84.1565 208.604 31.6211 169.742 35.7601 166.736C39.899 163.73 27.338 157.486 25.9006 156.072C7.7262 141.6 11.8652 121.065 12.8339 113.522C14.0966 106.199 17.4424 96.3807 11.0338 77.44C3.96914 56.5604 15.5533 43.9585 18.0641 39.373Z" fill="#737374"/>
<path d="M296.206 113.827C279.281 45.607 197.814 80.6887 146.149 117.599L116.32 228.922C154.353 227.339 219.037 217.941 217.407 214.221C217.018 209.766 228.855 211.355 231.07 210.973C254.045 207.527 260.728 187.673 263.661 180.656C266.229 173.684 268.24 163.507 283.261 150.309C299.819 135.759 296.088 119.053 296.206 113.827Z" fill="#737374"/>
<ellipse cx="166.468" cy="228.656" rx="52.3444" ry="54.6369" transform="rotate(15 166.468 228.656)" fill="#737374"/>
<ellipse cx="73.4657" cy="203.737" rx="52.3444" ry="54.6369" transform="rotate(15 73.4657 203.737)" fill="#737374"/>
<path d="M288.393 123.742C283.307 50.2455 189.826 94.3846 143.721 125.641L118.307 220.491C152.527 219.543 212.673 214.46 210.748 210.408C208.823 206.356 219.657 206.689 221.409 206.274C242.054 203.556 250.8 191.657 252.593 186.048C255.009 180.113 259.694 164.083 272.384 152.16C285.073 140.238 288.344 128.247 288.393 123.742Z" fill="#737374"/>
<path d="M19.3809 51.6608C60.5342 -9.44611 119.421 75.5199 143.721 125.641L118.306 220.491C89.1444 202.56 39.5975 168.084 43.2904 165.538C46.9834 162.992 37.4345 157.863 36.1249 156.628C19.6053 143.951 18.4432 130.012 19.2324 123.519C20.2887 117.22 24.065 100.946 19.0366 84.2762C14.0082 67.6063 17.171 55.5868 19.3809 51.6608Z" fill="#737374"/>
<ellipse cx="166.865" cy="226.132" rx="47.5354" ry="50.6631" transform="rotate(15 166.865 226.132)" fill="#737374"/>
<ellipse cx="75.0326" cy="201.525" rx="47.5354" ry="50.6631" transform="rotate(15 75.0326 201.525)" fill="#737374"/>
<path d="M144.879 122.529C147.546 145.276 148.562 188.88 118.443 222.807C112.876 200.738 115.159 158.769 144.879 122.529Z" fill="#737374"/>
</g>
<defs>
<clipPath id="clip0_189_42">
<rect width="300" height="300" fill="white"/>
</clipPath>
</defs>
</svg>
